<?xml version="1.0" encoding="UTF-8" standalone="no"?> <svg id="Layer_1" data-name="Layer 1" xmlns="http://www.w3.org/2000/svg" viewBox="0 0 128 128"><defs><style>.cls-1{fill:#2d3e50;}.cls-2{fill:#1d75b8;}</style></defs><title>b</title><path class="cls-1" d="M73.60168,49.3019a4.134,4.134,0,0,0-1.72761-.336l-12.78867.65836L49.40374,38.01734a7.39181,7.39181,0,0,0-.70208-.72965c-.04513-.0376-.09526-.0727-.1429-.1078a5.904,5.904,0,0,0-1.99843-.96036c-.0376-.01-.07778-.02006-.11538-.03008a6.97842,6.97842,0,0,0-.93278-.18809c-2.52244-.341-5.05247-.6394-7.57742-.95785a2.038,2.038,0,0,0-2.12885.99545c-1.13584,1.75024-2.30183,3.48286-3.45773,5.2205-.667,1.00047-1.339,1.99592-2.07621,3.09666-.01-.01253-.015-.02256-.02507-.0351a.30416.30416,0,0,1-.02507.0351c-.73717-1.10074-1.40916-2.0962-2.07614-3.09666-1.156-1.73764-2.32189-3.47026-3.45773-5.2205a2.038,2.038,0,0,0-2.12885-.99545c-.90771.11538-1.81786.22569-2.72808.3385-1.61731.20062-3.23461.40118-4.84941.61935a7.07808,7.07808,0,0,0-1.60226.40368.21052.21052,0,0,1-.03008.01,6.22543,6.22543,0,0,0-3.38753,2.7833,5.9829,5.9829,0,0,0-.34352.682L2.92838,55.57693l-.23822.55918a4.35046,4.35046,0,0,0-.08022,3.212l.68453,1.87051L8.708,76.0226a4.24912,4.24912,0,0,0,5.13527,2.61527,4.23292,4.23292,0,0,0,2.91109-5.228L15.45807,68.8614,12.53188,58.5809,15.0468,54.584c.015.28586.02758.56419.0351.84253.02507.91523.05265,1.8304.07778,2.74563.02507.85506.04763,1.70756.07019,2.56262l3.45272,12.126a6.24151,6.24151,0,0,1-1.54955,6.078,6.08856,6.08856,0,0,1-1.36153,1.0481q.3234,11.65212.64686,23.30167c.07527,2.72056.18558,6.908.28335,10.43091a8.403,8.403,0,0,0,8.33973,8.17176l5.20546.0376,5.20546-.0376a8.40294,8.40294,0,0,0,8.33973-8.17176c.09784-3.52291.20814-7.71036.28335-10.43091q.66569-23.92857,1.33646-47.862c.02256-.79483.07521-2.347.13544-3.62075,0,0,6.71992,6.67228,8.57294,8.17176a5.78546,5.78546,0,0,0,1.24364.77728,4.14782,4.14782,0,0,0,.90019.01l16.09637-3.48929a4.1642,4.1642,0,0,0,1.2412-7.97365Z"/><path class="cls-1" d="M21.50271,23.73645a8.90787,8.90787,0,0,0,17.48875,0l1.35883-7.015A9.38439,9.38439,0,0,0,31.05,6.07118H29.44416a9.38439,9.38439,0,0,0-9.30028,10.6503Z"/><path class="cls-2" d="M107.95952,6.08681C97.55432,9.777,87.01535,12.97327,76.8125,16.15935l-7.7576.40124a1.88368,1.88368,0,0,0-1.88279,1.88279v2.73335H65.11436a1.12015,1.12015,0,0,0-1.214.99455v9.541a1.12015,1.12015,0,0,0,1.214.99455h2.05776v2.73335A1.88368,1.88368,0,0,0,69.0549,37.323l7.7576.40124c10.20284,3.18608,20.74181,6.38238,31.147,10.07255a.07966.07966,0,0,0,.08916.00341.064.064,0,0,0,.03426-.06518V6.14851a.06391.06391,0,0,0-.03426-.06512A.07966.07966,0,0,0,107.95952,6.08681Z"/><path class="cls-2" d="M119.909,13.26138l-.00006-.00006a1.596,1.596,0,0,0-2.24134,2.27258,16.16431,16.16431,0,0,1,.15762,22.83062,1.59593,1.59593,0,0,0,2.27252,2.24134,19.356,19.356,0,0,0-.18873-27.34448Z"/><path class="cls-2" d="M114.79482,18.44666a1.59593,1.59593,0,1,0-2.24141,2.27246,8.87317,8.87317,0,0,1,.08639,12.53122,1.596,1.596,0,0,0,2.27265,2.24134,12.065,12.065,0,0,0-.11763-17.045Z"/></svg>